<?xml version="1.0" encoding="utf-8"?>
<svg version="1.2" baseProfile="tiny" id="Layer_1" xmlns="http://www.w3.org/2000/svg" xmlns:xlink="http://www.w3.org/1999/xlink"
	 x="0px" y="0px" width="144px" height="100px" viewBox="0 0 144 100" xml:space="preserve">
<g>
	<path fill="#A7A9AC" d="M79.152,100H19.901C8.933,100,0,91.175,0,80.313c0-10.701,8.676-19.447,19.448-19.688
		c3.832-13.148,15.948-22.237,29.874-22.237c11.559,0,21.954,6.193,27.416,16.238c0.859-0.089,1.645-0.135,2.414-0.135
		c12.673,0,23.008,10.208,23.008,22.747C102.16,89.79,91.841,100,79.152,100L79.152,100z M19.901,63.687
		c-9.265,0-16.808,7.462-16.808,16.627c0,9.178,7.543,16.626,16.808,16.626h59.251c10.982,0,19.915-8.835,19.915-19.7
		s-8.933-19.687-19.915-19.687c-0.921,0-1.902,0.074-3.063,0.253c-0.663,0.094-1.313-0.239-1.614-0.836
		c-4.768-9.566-14.409-15.522-25.152-15.522c-12.916,0-24.109,8.688-27.203,21.105c-0.165,0.702-0.8,1.134-1.539,1.163
		L19.901,63.687z M19.901,63.687"/>
	<path fill="#A7A9AC" d="M79.152,100c-0.861,0-1.54-0.687-1.54-1.521c0-0.852,0.679-1.539,1.54-1.539
		c10.982,0,19.915-8.835,19.915-19.7c0-10.852-8.933-19.687-19.915-19.687c-5.765,0-11.227,2.462-15.013,6.746
		c-0.559,0.642-1.539,0.7-2.173,0.148c-0.649-0.553-0.709-1.522-0.151-2.163c4.361-4.955,10.683-7.792,17.337-7.792
		c12.688,0,23.008,10.208,23.008,22.747C102.16,89.79,91.841,100,79.152,100L79.152,100z M79.152,100"/>
	<path fill="#FBB040" d="M111.379,69.896c-0.391,0-0.799-0.149-1.101-0.447c-0.603-0.598-0.589-1.568,0.015-2.16
		c4.603-4.541,7.137-10.587,7.137-17.006c0-13.237-10.878-24.014-24.262-24.014c-7.046,0-13.729,3.03-18.348,8.297
		c-0.558,0.628-1.538,0.702-2.187,0.151c-0.634-0.553-0.709-1.521-0.15-2.149c5.205-5.94,12.749-9.358,20.685-9.358
		c15.073,0,27.355,12.149,27.355,27.06c0,7.254-2.867,14.06-8.058,19.18C112.165,69.746,111.771,69.896,111.379,69.896
		L111.379,69.896z M111.379,69.896"/>
	<path fill="#FBB040" d="M93.168,14.522c-0.859,0-1.553-0.672-1.553-1.523V1.521C91.615,0.687,92.309,0,93.168,0
		c0.846,0,1.541,0.687,1.541,1.521v11.478C94.709,13.851,94.014,14.522,93.168,14.522L93.168,14.522z M93.168,14.522"/>
	<path fill="#FBB040" d="M142.446,51.807h-11.589c-0.859,0-1.554-0.688-1.554-1.524c0-0.85,0.694-1.535,1.554-1.535h11.589
		c0.859,0,1.554,0.686,1.554,1.535C144,51.118,143.306,51.807,142.446,51.807L142.446,51.807z M142.446,51.807"/>
	<path fill="#FBB040" d="M119.813,25.446c-0.392,0-0.8-0.147-1.102-0.447c-0.604-0.596-0.604-1.565,0-2.163l8.208-8.105
		c0.604-0.598,1.584-0.598,2.188,0s0.604,1.567,0,2.165l-8.207,8.104C120.598,25.299,120.206,25.446,119.813,25.446L119.813,25.446z
		 M119.813,25.446"/>
	<path fill="#FBB040" d="M128.007,86.284c-0.393,0-0.785-0.15-1.087-0.449l-8.208-8.104c-0.604-0.596-0.604-1.567,0-2.16
		c0.604-0.602,1.585-0.602,2.188,0l8.207,8.101c0.589,0.596,0.589,1.567,0,2.163C128.807,86.134,128.398,86.284,128.007,86.284
		L128.007,86.284z M128.007,86.284"/>
	<path fill="#FBB040" d="M66.509,25.446c-0.394,0-0.785-0.147-1.087-0.447l-8.208-8.104c-0.59-0.598-0.59-1.567,0-2.165
		c0.604-0.598,1.584-0.598,2.188,0l8.192,8.105c0.604,0.598,0.604,1.567,0,2.163C67.308,25.299,66.9,25.446,66.509,25.446
		L66.509,25.446z M66.509,25.446"/>
</g>
</svg>
