<?xml version="1.0" encoding="utf-8"?>
<svg version="1.2" baseProfile="tiny" id="Layer_1" xmlns="http://www.w3.org/2000/svg" xmlns:xlink="http://www.w3.org/1999/xlink"
	 x="0px" y="0px" width="102px" height="62px" viewBox="0 0 102 62" xml:space="preserve">
<g>
	<path fill="#A7A9AC" d="M79.027,62H19.869C8.918,62,0,53.104,0,42.189C0,31.405,8.662,22.62,19.418,22.379
		C23.243,9.132,35.341,0,49.245,0c11.54,0,21.919,6.233,27.371,16.341c0.859-0.104,1.643-0.149,2.411-0.149
		c12.67,0,22.973,10.272,22.973,22.904S91.697,62,79.027,62L79.027,62z M19.869,25.443c-9.249,0-16.78,7.51-16.78,16.746
		c0,9.223,7.531,16.732,16.78,16.732h59.158c10.967,0,19.885-8.907,19.885-19.826c0-10.935-8.918-19.824-19.885-19.824
		c-0.918,0-1.898,0.074-3.058,0.254c-0.664,0.105-1.311-0.24-1.613-0.841C69.597,9.057,59.972,3.079,49.245,3.079
		c-12.896,0-24.072,8.726-27.161,21.237c-0.165,0.707-0.844,1.157-1.537,1.172L19.869,25.443z M19.869,25.443"/>
	<path fill="#A7A9AC" d="M79.027,62c-0.859,0-1.538-0.69-1.538-1.546c0-0.842,0.679-1.532,1.538-1.532
		c10.967,0,19.885-8.892,19.885-19.826s-8.918-19.824-19.885-19.824c-5.739,0-11.208,2.478-14.988,6.788
		c-0.559,0.646-1.537,0.721-2.17,0.149c-0.647-0.555-0.708-1.517-0.151-2.163c4.354-4.986,10.666-7.84,17.31-7.84
		c12.67,0,22.973,10.273,22.973,22.89C102,51.728,91.697,62,79.027,62L79.027,62z M79.027,62"/>
</g>
</svg>
