<?xml version="1.0" encoding="utf-8"?>
<svg version="1.2" baseProfile="tiny" id="Layer_1" xmlns="http://www.w3.org/2000/svg" xmlns:xlink="http://www.w3.org/1999/xlink"
	 x="0px" y="0px" width="102px" height="89px" viewBox="0 0 102 89" xml:space="preserve">
<g>
	<g>
		<path fill="#A7A9AC" d="M79.027,62.457c-0.859,0-1.536-0.692-1.536-1.555c0-0.848,0.677-1.544,1.536-1.544
			c10.967,0,19.885-8.973,19.885-19.973c0-11.017-8.918-19.973-19.885-19.973c-0.918,0-1.898,0.076-3.059,0.257
			c-0.662,0.105-1.311-0.241-1.612-0.848c-4.76-9.698-14.386-15.72-25.096-15.72c-12.91,0-24.089,8.79-27.161,21.394
			c-0.181,0.697-0.859,1.15-1.536,1.181l-0.392-0.03h-0.03c-9.535,0-17.053,7.566-17.053,16.856c0,9.287,7.531,16.855,16.781,16.855
			c0.859,0,1.553,0.696,1.553,1.544c0,0.862-0.693,1.555-1.553,1.555C8.919,62.457,0,53.504,0,42.503
			c0-10.864,8.663-19.715,19.419-19.958C23.244,9.2,35.342,0,49.246,0c11.538,0,21.918,6.279,27.371,16.462
			c0.859-0.105,1.642-0.15,2.41-0.15C91.696,16.312,102,26.66,102,39.386S91.696,62.457,79.027,62.457L79.027,62.457z
			 M79.027,62.457"/>
	</g>
	<path fill="#A7A9AC" d="M79.027,62.457c-0.859,0-1.536-0.692-1.536-1.555c0-0.848,0.677-1.544,1.536-1.544
		c10.967,0,19.885-8.973,19.885-19.973c0-11.017-8.918-19.973-19.885-19.973c-5.74,0-11.207,2.497-14.988,6.839
		c-0.558,0.65-1.537,0.711-2.17,0.151c-0.648-0.561-0.708-1.544-0.15-2.179c4.354-5.023,10.665-7.913,17.309-7.913
		C91.696,16.312,102,26.66,102,39.386S91.696,62.457,79.027,62.457L79.027,62.457z M79.027,62.457"/>
	<path fill="#2A4F8C" d="M25.535,89c-0.167,0-0.317-0.016-0.482-0.079c-0.799-0.254-1.25-1.135-0.996-1.938l2.833-8.847
		c0.271-0.817,1.146-1.272,1.943-1.003c0.813,0.261,1.266,1.135,0.995,1.937l-2.832,8.855C26.785,88.588,26.183,89,25.535,89
		L25.535,89z M31.198,71.297c-0.166,0-0.316-0.015-0.466-0.061c-0.814-0.272-1.267-1.135-1.01-1.952l2.832-8.852
		c0.271-0.816,1.13-1.255,1.943-0.998c0.813,0.256,1.265,1.135,0.993,1.937l-2.831,8.852C32.449,70.889,31.846,71.297,31.198,71.297
		L31.198,71.297z M31.198,71.297"/>
	<path fill="#2A4F8C" d="M56.385,89c-0.165,0-0.314-0.016-0.48-0.079c-0.799-0.254-1.252-1.135-0.996-1.938l2.834-8.847
		c0.271-0.817,1.145-1.272,1.942-1.003c0.813,0.261,1.265,1.135,0.995,1.937l-2.832,8.855C57.637,88.588,57.033,89,56.385,89
		L56.385,89z M62.05,71.297c-0.165,0-0.316-0.015-0.468-0.061c-0.813-0.272-1.266-1.135-1.008-1.952l2.831-8.852
		c0.271-0.816,1.131-1.255,1.943-0.998c0.813,0.256,1.266,1.135,0.995,1.937l-2.832,8.852C63.301,70.889,62.697,71.297,62.05,71.297
		L62.05,71.297z M62.05,71.297"/>
	<path fill="#2A4F8C" d="M40.96,89c-0.166,0-0.315-0.016-0.481-0.079c-0.8-0.254-1.251-1.135-0.995-1.938l2.833-8.847
		c0.271-0.817,1.145-1.272,1.942-1.003c0.814,0.261,1.267,1.135,0.995,1.937l-2.833,8.855C42.21,88.588,41.608,89,40.96,89L40.96,89
		z M46.624,71.297c-0.165,0-0.316-0.015-0.466-0.061c-0.814-0.272-1.267-1.135-1.01-1.952l2.832-8.852
		c0.27-0.816,1.129-1.255,1.943-0.998c0.813,0.256,1.265,1.135,0.994,1.937l-2.833,8.852C47.875,70.889,47.271,71.297,46.624,71.297
		L46.624,71.297z M46.624,71.297"/>
</g>
</svg>
