<?xml version="1.0" encoding="utf-8"?>
<svg version="1.2" baseProfile="tiny" id="Layer_1" xmlns="http://www.w3.org/2000/svg" xmlns:xlink="http://www.w3.org/1999/xlink"
	 x="0px" y="0px" width="108px" height="108px" viewBox="0 0 108 108" xml:space="preserve">
<g>
	<g>
		<path fill="#FBB040" d="M53.993,83.017c-15.995,0-29.009-13.019-29.009-29.013c0-16.007,13.014-29.025,29.009-29.025
			c16.009,0,29.024,13.019,29.024,29.025C83.018,69.998,70.002,83.017,53.993,83.017L53.993,83.017z M53.993,28.085
			c-14.285,0-25.907,11.622-25.907,25.919c0,14.287,11.622,25.91,25.907,25.91c14.3,0,25.922-11.623,25.922-25.91
			C79.915,39.707,68.293,28.085,53.993,28.085L53.993,28.085z M53.993,28.085"/>
		<path fill="#FBB040" d="M53.993,15.43c-0.847,0-1.544-0.692-1.544-1.539V1.54c0-0.844,0.697-1.54,1.544-1.54
			c0.862,0,1.559,0.696,1.559,1.54v12.351C55.552,14.753,54.855,15.43,53.993,15.43L53.993,15.43z M53.993,15.43"/>
	</g>
	<path fill="#FBB040" d="M53.993,108c-0.847,0-1.544-0.696-1.544-1.549V94.108c0-0.848,0.697-1.544,1.544-1.544
		c0.862,0,1.559,0.696,1.559,1.544v12.343C55.552,107.304,54.855,108,53.993,108L53.993,108z M53.993,108"/>
	<g>
		<path fill="#FBB040" d="M13.893,55.551H1.545C0.697,55.551,0,54.854,0,54.004c0-0.86,0.697-1.556,1.545-1.556h12.348
			c0.847,0,1.543,0.695,1.543,1.556C15.436,54.854,14.739,55.551,13.893,55.551L13.893,55.551z M13.893,55.551"/>
		<path fill="#FBB040" d="M106.457,55.551H94.109c-0.849,0-1.544-0.696-1.544-1.547c0-0.86,0.695-1.556,1.544-1.556h12.348
			c0.848,0,1.543,0.695,1.543,1.556C108,54.854,107.305,55.551,106.457,55.551L106.457,55.551z M106.457,55.551"/>
	</g>
	<path fill="#FBB040" d="M25.649,27.178c-0.408,0-0.802-0.147-1.104-0.457l-8.73-8.717c-0.605-0.605-0.605-1.59,0-2.19
		c0.604-0.606,1.588-0.606,2.193,0l8.731,8.73c0.605,0.602,0.605,1.57,0,2.177C26.437,27.03,26.044,27.178,25.649,27.178
		L25.649,27.178z M25.649,27.178"/>
	<path fill="#FBB040" d="M91.098,92.641c-0.409,0-0.802-0.151-1.104-0.454l-8.731-8.732c-0.591-0.604-0.591-1.589,0-2.194
		c0.605-0.59,1.589-0.59,2.194,0l8.731,8.728c0.605,0.61,0.605,1.593,0,2.199C91.885,92.489,91.492,92.641,91.098,92.641
		L91.098,92.641z M91.098,92.641"/>
	<path fill="#FBB040" d="M16.918,92.641c-0.393,0-0.801-0.151-1.104-0.454c-0.605-0.606-0.605-1.589,0-2.199l8.73-8.728
		c0.605-0.59,1.59-0.59,2.194,0c0.605,0.605,0.605,1.59,0,2.194l-8.731,8.732C17.706,92.489,17.313,92.641,16.918,92.641
		L16.918,92.641z M16.918,92.641"/>
	<path fill="#FBB040" d="M82.366,27.178c-0.394,0-0.788-0.147-1.104-0.457c-0.591-0.606-0.591-1.575,0-2.177l8.731-8.73
		c0.604-0.606,1.589-0.606,2.194,0c0.605,0.601,0.605,1.585,0,2.19l-8.731,8.717C83.152,27.03,82.759,27.178,82.366,27.178
		L82.366,27.178z M82.366,27.178"/>
</g>
</svg>
